<svg xmlns="http://www.w3.org/2000/svg" xmlns:xlink="http://www.w3.org/1999/xlink" width="300" zoomAndPan="magnify" viewBox="0 0 224.87999 116.999995" height="156" preserveAspectRatio="xMidYMid meet" version="1.0"><defs><g/><clipPath id="84ea69b1de"><path d="M 83.214844 4.035156 L 140.1875 4.035156 L 140.1875 108.230469 L 83.214844 108.230469 Z M 83.214844 4.035156 " clip-rule="nonzero"/></clipPath><clipPath id="bf93820b33"><path d="M 99 4.035156 L 140.1875 4.035156 L 140.1875 108.230469 L 99 108.230469 Z M 99 4.035156 " clip-rule="nonzero"/></clipPath></defs><g clip-path="url(#84ea69b1de)"><path fill="#000000" d="M 123.460938 4.089844 L 113.992188 49.070312 L 140.035156 49.070312 L 99.789062 108.257812 L 109.257812 63.277344 L 83.214844 63.277344 Z M 123.460938 4.089844 " fill-opacity="1" fill-rule="nonzero"/></g><g clip-path="url(#bf93820b33)"><path fill="#000000" d="M 113.992188 49.070312 L 123.460938 4.089844 L 117.308594 13.089844 L 109.257812 51.441406 L 135.300781 51.441406 L 101.210938 101.628906 L 99.789062 108.257812 L 140.035156 49.070312 Z M 113.992188 49.070312 " fill-opacity="1" fill-rule="nonzero"/></g><g fill="#ffffff" fill-opacity="1"><g transform="translate(0.367017, 54.173295)"><g><path d="M 21.4375 0.609375 C 14.425781 0.609375 9.269531 -0.832031 5.96875 -3.71875 C 3.039062 -6.257812 1.578125 -9.734375 1.578125 -14.140625 C 1.578125 -18.554688 3.039062 -22.039062 5.96875 -24.59375 C 9.269531 -27.46875 14.425781 -28.90625 21.4375 -28.90625 C 25.550781 -28.90625 28.953125 -28.429688 31.640625 -27.484375 C 34.328125 -26.546875 36.414062 -25.257812 37.90625 -23.625 C 39.394531 -22 40.378906 -20.128906 40.859375 -18.015625 L 28.359375 -18.015625 C 27.109375 -20.222656 24.800781 -21.328125 21.4375 -21.328125 C 18.5625 -21.328125 16.445312 -20.492188 15.09375 -18.828125 C 14.007812 -17.515625 13.46875 -15.953125 13.46875 -14.140625 C 13.46875 -12.335938 14.007812 -10.78125 15.09375 -9.46875 C 16.445312 -7.800781 18.5625 -6.96875 21.4375 -6.96875 C 24.800781 -6.96875 27.109375 -8.078125 28.359375 -10.296875 L 40.859375 -10.296875 C 40.378906 -8.171875 39.394531 -6.289062 37.90625 -4.65625 C 36.414062 -3.03125 34.328125 -1.742188 31.640625 -0.796875 C 28.953125 0.140625 25.550781 0.609375 21.4375 0.609375 Z M 21.4375 0.609375 "/></g></g></g><g fill="#ffffff" fill-opacity="1"><g transform="translate(42.815461, 54.173295)"><g><path d="M 15.0625 0 L 3.15625 0 L 3.15625 -28.359375 L 15.0625 -28.359375 Z M 15.0625 0 "/></g></g></g><g fill="#ffffff" fill-opacity="1"><g transform="translate(61.035882, 54.173295)"><g><path d="M 41.875 0 L 30.625 0 C 30.113281 -0.707031 29.753906 -1.617188 29.546875 -2.734375 C 29.359375 -3.585938 29.078125 -4.425781 28.703125 -5.25 C 28.335938 -6.070312 27.703125 -6.753906 26.796875 -7.296875 C 25.898438 -7.847656 24.5625 -8.144531 22.78125 -8.1875 L 15.0625 -8.1875 L 15.0625 0 L 3.15625 0 L 3.15625 -28.359375 L 22.5 -28.359375 C 27.125 -28.359375 30.851562 -28.007812 33.6875 -27.3125 C 36.53125 -26.625 38.601562 -25.535156 39.90625 -24.046875 C 41.21875 -22.566406 41.875 -20.640625 41.875 -18.265625 C 41.875 -16.273438 41.421875 -14.597656 40.515625 -13.234375 C 39.617188 -11.878906 38.191406 -10.804688 36.234375 -10.015625 C 38.117188 -9.242188 39.34375 -8.3125 39.90625 -7.21875 C 40.46875 -6.132812 40.8125 -4.941406 40.9375 -3.640625 C 41.070312 -2.472656 41.382812 -1.257812 41.875 0 Z M 15.0625 -15.171875 L 21.859375 -15.203125 C 23.753906 -15.203125 25.25 -15.285156 26.34375 -15.453125 C 27.4375 -15.617188 28.242188 -15.847656 28.765625 -16.140625 C 29.285156 -16.441406 29.613281 -16.773438 29.75 -17.140625 C 29.894531 -17.503906 29.96875 -17.878906 29.96875 -18.265625 C 29.96875 -18.640625 29.894531 -19.007812 29.75 -19.375 C 29.613281 -19.75 29.285156 -20.082031 28.765625 -20.375 C 28.242188 -20.675781 27.4375 -20.910156 26.34375 -21.078125 C 25.25 -21.253906 23.753906 -21.34375 21.859375 -21.34375 L 15.0625 -21.34375 Z M 15.0625 -15.171875 "/></g></g></g><g fill="#ffffff" fill-opacity="1"><g transform="translate(104.49218, 54.173295)"><g><path d="M 21.4375 0.609375 C 14.425781 0.609375 9.269531 -0.832031 5.96875 -3.71875 C 3.039062 -6.257812 1.578125 -9.734375 1.578125 -14.140625 C 1.578125 -18.554688 3.039062 -22.039062 5.96875 -24.59375 C 9.269531 -27.46875 14.425781 -28.90625 21.4375 -28.90625 C 25.550781 -28.90625 28.953125 -28.429688 31.640625 -27.484375 C 34.328125 -26.546875 36.414062 -25.257812 37.90625 -23.625 C 39.394531 -22 40.378906 -20.128906 40.859375 -18.015625 L 28.359375 -18.015625 C 27.109375 -20.222656 24.800781 -21.328125 21.4375 -21.328125 C 18.5625 -21.328125 16.445312 -20.492188 15.09375 -18.828125 C 14.007812 -17.515625 13.46875 -15.953125 13.46875 -14.140625 C 13.46875 -12.335938 14.007812 -10.78125 15.09375 -9.46875 C 16.445312 -7.800781 18.5625 -6.96875 21.4375 -6.96875 C 24.800781 -6.96875 27.109375 -8.078125 28.359375 -10.296875 L 40.859375 -10.296875 C 40.378906 -8.171875 39.394531 -6.289062 37.90625 -4.65625 C 36.414062 -3.03125 34.328125 -1.742188 31.640625 -0.796875 C 28.953125 0.140625 25.550781 0.609375 21.4375 0.609375 Z M 21.4375 0.609375 "/></g></g></g><g fill="#ffffff" fill-opacity="1"><g transform="translate(146.940624, 54.173295)"><g><path d="M 36.265625 0 L 3.15625 0 L 3.15625 -28.359375 L 15.0625 -28.359375 L 15.0625 -7.015625 L 36.265625 -7.015625 Z M 36.265625 0 "/></g></g></g><g fill="#ffffff" fill-opacity="1"><g transform="translate(183.994084, 54.173295)"><g><path d="M 37.3125 0 L 3.15625 0 L 3.15625 -28.359375 L 35.75 -28.359375 L 35.75 -21.34375 L 15.0625 -21.34375 L 15.0625 -16.890625 L 32.546875 -16.890625 L 32.546875 -11.4375 L 15.0625 -11.4375 L 15.0625 -7.015625 L 37.3125 -7.015625 Z M 37.3125 0 "/></g></g></g><g fill="#ffffff" fill-opacity="1"><g transform="translate(69.229511, 84.775916)"><g><path d="M 32.171875 0 L 25.5 0 L 20.78125 -12.40625 L 16.0625 0 L 9.390625 0 L 0.203125 -19.09375 L 8.328125 -19.09375 L 13.109375 -6.96875 L 18.25 -19.09375 L 23.3125 -19.09375 L 28.453125 -6.96875 L 33.25 -19.09375 L 41.359375 -19.09375 Z M 32.171875 0 "/></g></g></g><g fill="#ffffff" fill-opacity="1"><g transform="translate(110.777394, 84.775916)"><g><path d="M 10.140625 0 L 2.125 0 L 2.125 -19.109375 L 10.140625 -19.109375 Z M 10.140625 0 "/></g></g></g><g fill="#ffffff" fill-opacity="1"><g transform="translate(123.04746, 84.775916)"><g><path d="M 30.46875 0 L 20.9375 0 L 10.140625 -12.921875 L 10.140625 0 L 2.125 0 L 2.125 -19.109375 L 11.65625 -19.109375 L 22.453125 -6.25 L 22.453125 -19.109375 L 30.46875 -19.109375 Z M 30.46875 0 "/></g></g></g></svg>